<svg xmlns="http://www.w3.org/2000/svg" width="250" height="249" viewBox="0 0 250 249">
<!-- SVG created with Arrow, by QuiverAI (https://quiver.ai) -->
  <path d="m249.8 0.81h-249.6v248h249.6v-248z" fill="#000000"/>
  <path d="m114.9 9.16 23.28 1.05c5.72 0 14.6 2.28 22.82 1.98s10.8 1.57 17.27 4.16 10 4.81 14.43 6.59 6.3 2.87 10.48 8.22 5.53 7.57 9.18 10.51 8.39 7.42 9.39 8.91 8.01 12.68 9.83 18.94c1.23 4.43 7.15 8.22 8.15 16.19 0.15 2.18-0.3 8.69 1.04 14.55s3.31 13.38 3.61 16.92-0.59 10.96-0.74 15.1 0 7.68-3.02 14.58c-1.92 4.58-2.81 10.89-5.34 17.5s-5.37 14.53-7.15 17.77-8.1 9.1-9.73 11.84-1.34 4.28-11.22 11.34c-4.43 3.24-11.2 15.92-25.02 16.71-7.62 0.9-14.68-2.04-15.42-8.35-0.89-7.96 2.91-12.39 17.31-17.95 10.78-3.24 17.74-12.24 22.17-17.53s8.71-17.53 11.24-23.99c1.63-3.84 7.5-9.55 9.88-18.12 3.28-10.69 1.26-21.24-1.27-35.57-0.75-4.14-5.33-9.38-5.93-18.24-2.23-2.49-5.26-9.05-7.94-16.16-1.29-3.84-5.72-5.92-9.25-9.01-4.73-3.24-9.76-13.79-15.04-17.03s-15.46-12.2-23.68-17.44c-3.13-1.49-12.26-0.89-16.99-2.09-2.98 0-6.21 0.75-11.78 0.75-7.62 0-8.22-2.64-18.1-2.04-5.03 0-16.56 5.25-25.08 7.43-10.18 3.24-18.1 7.67-27.68 13.53-10.48 4.44-17.54 10-27.72 25.8-2.53 3.84-3.12 6.98-6.66 12.22s-4.14 16.68-5.18 27.87c-1.92 2.94-2.52 9.1-2.82 15.81-0.29 6.71 3.84 16.66 5.33 24.32 2.12 6.91 2.42 15.48 6.55 21.04 4.13 4.44 8.91 9.68 15.08 11.91 5.62 0.9 10.95-0.59 14.48-3.83s1-9.55-4.92-17.82c-3.53-6.16-9.6-14.58-11.09-19.31-1.97-3.84-5.2-11.05-4.9-16.61 1.19-6.46 1.49-10 1.34-19.26 1.05-9.85 8.06-28.22 14.88-38.47 3.23-3.84 8.26-5.92 11.19-7.12 5.33-4.14 13.55-9.7 22.67-12.24 6.47-1.88 11.8-6.31 18.57-6.31 5.32 0.6 13.84-1.89 21.16-1.19 5.03 0.6 8.86 1.19 12.09 2.68 8.82 0.9 23.22 5.04 29.69 12.4 1.92 2.94 3.41 2.65 5.79 4.14 3.23 1.88 7.96 9.14 14.73 14.7 4.14 3.84 6.67 9.7 8.89 12.64 2.53 4.14 3.48 11.35 4.07 16.39-0.15 4.74 1.34 7.98 1.94 11.22 0.59 3.24-0.15 10.15-1.79 13.39s-2.97 9.7-3.27 12.19c0.74 5.56-4.59 15.11-9.02 22.48-4.43 9.55-13.55 23.58-24.63 29.89-8.52 4.14-14.99 8.27-15.58 15.79-1.05 6.31 1.18 12.47 4.71 17.15 3.53 4.09 5.5 6.83 2.27 10.67s-12.35 4.13-15.58 5.33c-3.23 0.9-12.06 1.49-18.23 2.69-4.73 0-12.05-2.19-17.38-2.19-5.03-0.9-13.25-2.39-17.98-4.57-4.73-2.19-10.06-6.62-9.47-10.76 0.6-4.14 3.53-7.68 6.06-9.27s7.26-8.2 7.56-11.74c0.59-2.64 3.82-6.78 3.67-13.69-0.59-2.19 0.45-12.34-2.48-21-1.92-3.84-0.73-8.28-2.96-17.24-0.6-4.14-3.53-11.05-4.57-16.91-1.34-5.56-5.47-9.7-8.4-18.66-2.53-5.86-1.04-10.6 0.45-16.46 3.23-9.55 9.1-15.41 20.87-21.87 5.03-2.94 6.22-7.38 24.03-8.27 4.13 0 6.05-0.6 9.88 0.3 2.83 0 5.66 0.89 8.79 1.64 5.87 0.3 11.74 4.74 13.37 6.33 5.03 2.18 14.16 12.73 17.09 18.6 1.49 4.14 5.02 8.28 5.32 17.24 0.89 2.49-2.34 17.72-3.68 24.63-1.63 6.91-6.66 12.77-13.98 17.51-2.93 1.88-6.76 3.37-10.29 3.67-4.43 0.3-10.6-7.96-12.09-13.82-1.34-4.74-7.81-7.22-12.24-11.96-6.77-7.36-12.1-13.52-11.5-25.86 0-6.16 3.23-8.35 11.45-11.89 6.77-0.9 13.54 0.3 19.11 5.54 4.93 4.44 6.42 13.99 6.87 18.73s2.57 12.41 5.4 12.41c4.73 0 6.66-12.99 7.11-16.23 0.45-5.86-1.93-17.9-9.25-24.21-7.32-4.94-12.6-9.38-19.37-10.28-7.32-0.3-16.44 3.24-23.76 5.43-5.87 1.88-11.44 9.84-11.44 12.18-0.6 5.56 0.3 15.11 2.52 19.55 1.92 2.64 6.5 7.88 8.73 13.74 1.92 3.24 8.93 13.39 12.16 18.65 2.78 5.09 3.88 13.17 12.4 21.13 3.83 2.79 6.76 4.58 9.44 4.28 4.13 0.3 6.36-1.19 12.53-3.98 7.62-2.94 9.84-10.91 17.16-18.12 4.73-4.74 8.86-14.29 11.39-23.84-0.59-3.24 0.75-9.1 2.53-17.07 1.78-7.21-1.45-18.06-5.58-27.91-1.19-6.16-11.67-17.31-20.19-21.75-4.73-3.84-12.05-7.68-16.48-7.68-7.92-0.3-17.34-2.48-27.22-2.78-7.62-0.3-11.15 1.19-15.28 3.08-4.13 1.88-10.9 4.37-15.33 5.86-4.73 2.19-12.05 7.23-14.58 10.17-6.77 8.66-11.8 21.79-11.8 32.24 0 2.94-0.59 3.69-0.3 9.25-0.29 6.31 3.84 18.05 6.37 22.79s6.66 7.38 8.44 12.32c3.53 7.66 5.02 19.11 5.91 24.98 1.05 4.14 0 10.3-1.19 20.75-0.59 6.26-3.82 8.45-9.69 11.19-3.83 1.59-7.37 0.99-10.6 1.59-3.83 0-7.96 1.19-9.88 1.19-3.14-1.49-4.03-2.98-10.2-5.17-4.43-2.18-11.75-6.32-14.98-10.46-3.23-5.04-7.06-8.58-9.89-12.42s-1.94-6.63-4.77-12.19c-3.53-5.86-2.49-10.3-7.22-18.67-3.13-5.86-3.58-9.1-3.13-12.94 1.19-4.44 0.6-13.4 2.23-21.66 1.92-5.86 1.77-9.1 1.92-16.77 0.45-7.67 2.08-12.1 4.01-16.84 1.92-3.54 2.22-5.72 4.85-10.46 3.53-5.86 8.56-11.72 13.59-18.63 2.53-6.16 6.06-8.05 13.98-12.79 5.03-2.94 4.44-6.48 14.32-12.64 6.47-3.24 7.07-5.13 20.59-8.66 6.17-1.2 9.1-5.34 18.22-6.83 4.43-0.89 9.16-1.44 15.09-1.44z" fill="#000000"/>
</svg>