<svg width="290" height="282" viewBox="0 0 290 282" fill="none" xmlns="http://www.w3.org/2000/svg">
<g filter="url(#filter0_g_947_2531)">
<path d="M245.322 34.6284C249.784 40.1979 255.955 44.3848 260.669 49.825C264.098 54.3717 266.3 59.5983 269.543 64.3417C271.695 67.9947 273.145 71.9962 275.112 75.7448C278.349 81.983 282.339 88.1988 282.991 95.3869C283.396 106.509 285.548 117.35 287.965 128.174C289.516 136.307 289.015 144.557 288.442 152.711C288.324 159.422 285.374 165.772 283.502 172.078C281.069 180.75 279.113 189.647 275.326 197.852C272.729 202.966 270.948 208.614 267.84 213.374C264.142 218.039 259.731 222.232 256.663 227.419C252.869 232.589 247.21 235.916 242.619 240.3C235.229 247.022 229.047 254.581 219.595 257.801C207.422 262.522 192.817 256.935 196.149 242.059C198.684 234.438 206.787 230.679 213.57 227.43C237.544 221.214 249.368 199.695 257.494 178.013C259.922 171.971 263.783 166.666 266.621 160.844C269.116 155.522 270.852 149.165 271.291 143.354C271.813 134.064 269.037 124.993 268.515 115.72C267.958 109.268 263.586 104.081 261.473 98.062C260.04 94.3247 259.989 90.2782 258.624 86.5409C256.28 81.3255 252.577 76.3742 250.419 70.934C247.716 63.4874 241.77 60.6774 236.336 55.5856C230.508 49.7576 227.136 41.6479 219.926 37.1743C190.063 16.0429 194.694 16.7735 158.553 18.2853C148.831 18.2291 140.368 12.3449 130.387 15.1324C119.828 18.5719 108.936 21.4606 98.5231 25.4059C88.3177 29.3961 78.781 34.6677 69.3623 40.1361C58.578 45.2335 49.682 53.3544 43.0731 63.2458C38.9258 68.7927 36.47 74.3847 33.7612 80.505C32.1034 84.0119 29.8106 87.2546 28.5124 90.9077C25.4328 100.642 25.7812 111.123 23.4603 121.014C17.4415 140.134 25.6014 160.102 29.9848 178.648C30.2377 185.589 33.4915 191.293 38.5155 195.935C42.9776 200.684 47.996 205.714 54.425 207.501C60.7978 208.429 68.553 206.726 72.3408 201.179C75.19 193.153 64.4179 176.973 59.9164 169.909C53.937 162.277 50.0763 153.375 47.2271 144.225C43.6642 136.964 46.0625 129.883 46.2536 121.874C46.2817 117.586 46.445 113.601 47.0294 109.386C47.9511 102.895 49.5805 95.3591 51.761 89.3682C55.2733 80.7807 59.022 73.2326 65.0238 66.1176C71.0707 59.8288 79.4272 56.6534 86.8116 52.3091C95.2468 46.7902 105.104 44.1432 114.146 39.827C131.809 34.2631 152.006 33.1503 170.13 37.6014C182.42 40.0742 194.688 43.7273 204.596 51.7527C218.499 63.4312 232.745 76.1438 240.686 92.796C244.951 102.468 244.08 113.809 247.868 123.718C248.947 127.713 248.003 131.749 247.221 135.834C246.491 142.601 243.619 148.496 242.287 155.038C241.472 165.593 236.836 174.461 231.115 183.183C228.463 187.348 226.76 191.973 224.018 196.053C219.893 201.893 213.919 208.665 208.361 213.571C203.994 217.241 198.358 219.916 193.396 222.957C179.223 229.999 178.52 246.448 187.057 258.369C198.442 269.749 189.821 273.97 177.649 276.179C171.108 277.415 164.92 278.944 158.205 279.494C151.899 281.057 145.617 281.529 139.199 280.309C135.175 279.961 131.151 279.714 127.212 278.753C117.698 275.757 94.9995 273.413 93.8644 261.656C93.6733 253.968 103.839 248.247 107.925 242.245C110.516 238.861 111.392 234.427 113.022 230.437C116.529 223.552 115.804 215.954 115.219 208.524C115.461 201.651 113.798 195.407 112.151 188.865C111.336 183.807 110.993 178.564 110.409 173.618C110.015 169.156 108.341 164.986 107.071 160.737C105.907 156.291 104.828 151.891 103.098 147.519C100.153 138.594 93.7014 131.603 92.6505 122.054C90.3352 107.818 98.4164 95.5274 109.066 87.4008C114.641 84.1692 120.322 81.2299 125.475 77.2903C138.985 69.411 170.45 71.3948 183.617 79.6114C194.896 87.6031 205.647 97.7248 210.541 111.044C213.868 119.014 216.605 127.528 214.413 135.952C212.424 142.595 212.081 149.828 210.541 156.488C208.114 167.56 197.386 175.068 187.394 179.575C175.547 185.971 168.775 170.831 164.769 162.187C162.122 157.831 157.946 153.914 154.136 150.621C148.955 146.243 145.807 141.595 142.019 135.891C138.327 129.928 135.832 122.071 137.445 115.096C140.457 106.655 148.73 103.991 156.811 104.07C169.759 102.878 179.785 113.972 181.01 126.235C182.016 131.923 182.117 137.953 184.359 143.382C187.09 150.565 191.209 151.306 194.57 144.197C201.229 130.563 198.706 112.601 188.782 101.192C186.09 98.3374 182.443 96.8874 179.2 94.7799C175.491 92.1778 172.046 89.4914 167.556 88.1763C158.75 84.9167 150.275 89.424 141.823 91.6439C136.198 93.4086 130.505 94.9935 126.33 99.2928C120.44 105.306 118.546 115.181 120.496 123.083C121.558 127.14 121.621 130.153 124.055 133.44C126.87 137.223 129.949 141.336 131.95 145.366C136.266 155.403 143.695 163.491 148.983 173.022C154.451 184.268 158.492 197.301 171.311 202.112C177.858 204.186 186.719 200.594 192.614 198.071C199.645 194.879 203.348 187.798 208.024 181.632C210.62 178.142 213.677 175.029 216.178 171.46C221.022 164.249 224.102 155.392 225.743 147.018C228.024 130.625 233.577 112.506 224.057 97.3089C221.387 90.874 218.859 84.1748 213.818 79.0999C209.429 75.0703 204.922 71.4061 200.291 67.7306C194.84 64.6901 189.417 61.1101 183.735 58.7047C174.862 55.5744 163.864 55.7036 154.13 54.9168C147.347 54.2593 140.536 52.5058 133.759 54.4897C125.071 56.8052 116.478 60.2334 108.251 63.5886C100.962 66.9437 92.4707 69.8943 87.604 76.8013C78.264 90.9639 72.8699 107.807 74.4435 124.639C74.2917 133.221 76.0226 141.443 79.8778 149.109C82.3223 156.241 88.2952 163.052 91.1556 169.982C94.7691 181.363 97.6521 192.895 99.5853 204.697C98.5231 219.972 100.523 236.608 78.6845 240.217C73.7335 238.997 65.9455 242.16 60.8371 241.379C57.0045 240.547 53.8012 238.176 50.272 236.608C46.0797 234.899 41.6233 233.09 37.8805 230.268C32.716 227.132 29.8218 222.288 26.2926 217.483C22.7409 213.071 18.8802 208.755 17.0875 203.247C15.7725 196.863 11.9229 191.675 10.3044 185.471C9.09058 179.159 7.10119 172.663 4.20141 166.897C3.11118 164.654 2.08838 162.479 1.57699 160.006C0.335025 155.004 1.32972 149.918 2.38623 144.995C3.12804 138.785 2.71779 132.193 4.30256 126.022C6.57294 118.44 5.6513 110.499 6.60104 102.873C9.51768 87.9515 14.4462 72.2154 24.7416 61.3405C29.5577 56.3162 32.2383 48.909 36.8746 43.924C41.9155 39.2256 48.6535 36.8371 53.4584 31.7341C63.8437 21.4662 77.2917 15.6157 91.2343 11.9739C105.362 5.08375 121.058 0.441585 136.934 1.05417C152.855 1.4813 168.753 3.52138 184.679 4.54423C191.637 4.83085 198.594 5.28046 205.073 8.08487C214.818 11.766 223.686 15.8237 232.767 20.6682C237.848 24.1695 241.276 29.8738 245.255 34.5441L245.328 34.6284H245.322Z" fill="black"/>
</g>
<defs>
<filter id="filter0_g_947_2531" x="0" y="0" width="290" height="282" filterUnits="userSpaceOnUse" color-interpolation-filters="sRGB">
<feFlood flood-opacity="0" result="BackgroundImageFix"/>
<feBlend mode="normal" in="SourceGraphic" in2="BackgroundImageFix" result="shape"/>
<feTurbulence type="fractalNoise" baseFrequency="0.068306006491184235 0.068306006491184235" numOctaves="3" seed="8460" />
<feDisplacementMap in="shape" scale="2" xChannelSelector="R" yChannelSelector="G" result="displacedImage" width="100%" height="100%" />
<feMerge result="effect1_texture_947_2531">
<feMergeNode in="displacedImage"/>
</feMerge>
</filter>
</defs>
</svg>
